<svg width="40" height="41" viewBox="0 0 40 41" fill="none" xmlns="http://www.w3.org/2000/svg">
<path d="M11.8743 1.04867H12.3743V1.03906H28.279C34.2436 1.03906 39.1261 6.02375 39.1261 12.1511V28.9251C39.1261 35.0527 34.2434 40.0371 28.2884 40.0371H11.8743C5.90835 40.0371 1.01782 35.0607 1.01782 28.9443V12.1607C1.01782 6.03391 5.90915 1.04867 11.8743 1.04867ZM3.02615 12.1693V12.1703V28.9539C3.02615 33.94 6.95371 37.9707 11.8743 37.9707H28.2884C33.1916 37.9707 37.1178 33.9386 37.1178 28.9347V12.1607C37.1178 7.15646 33.1913 3.12471 28.279 3.12471H11.8743C6.96149 3.12471 3.03607 7.15679 3.02615 12.1693ZM31.1105 8.23876C31.1105 7.64883 31.5645 7.20074 32.1147 7.20074C32.6648 7.20074 33.1188 7.64883 33.1188 8.23876C33.1188 8.82869 32.6648 9.27678 32.1147 9.27678C31.5645 9.27678 31.1105 8.82869 31.1105 8.23876ZM10.0522 20.5429C10.0522 14.8871 14.5769 10.2768 20.0814 10.2768C25.5858 10.2768 30.1105 14.8871 30.1105 20.5429C30.1105 26.1987 25.5858 30.809 20.0814 30.809C14.5769 30.809 10.0522 26.1987 10.0522 20.5429ZM28.1022 20.5429C28.1022 16.0093 24.542 12.3528 20.0814 12.3528C15.6207 12.3528 12.0605 16.0093 12.0605 20.5429C12.0605 25.0765 15.6207 28.733 20.0814 28.733C24.542 28.733 28.1022 25.0765 28.1022 20.5429Z" fill="#070707" stroke="#070707"/>
</svg>
