<svg width="41" height="41" viewBox="0 0 41 41" fill="none" xmlns="http://www.w3.org/2000/svg">
<g clip-path="url(#clip0_169_15)">
<path d="M35.0281 0.755859H6.66836C3.4285 0.755859 0.792725 3.38434 0.792725 6.61523V34.8965C0.792725 38.1274 3.4285 40.7559 6.66836 40.7559H35.0281C38.268 40.7559 40.9038 38.1274 40.9038 34.8965V6.61523C40.9038 3.38434 38.268 0.755859 35.0281 0.755859ZM38.5535 34.8965C38.5535 36.835 36.972 38.4121 35.0281 38.4121H6.66836C4.72451 38.4121 3.14298 36.835 3.14298 34.8965V6.61523C3.14298 4.67676 4.72451 3.09961 6.66836 3.09961H35.0281C36.972 3.09961 38.5535 4.67676 38.5535 6.61523V34.8965Z" fill="#070707" stroke="#070707" stroke-width="0.5"/>
<path d="M19.6732 17.2402C19.6732 14.6554 17.5647 12.5527 14.9726 12.5527H7.92188V28.959H14.9726C17.5647 28.959 19.6732 26.8563 19.6732 24.2715C19.6732 22.8726 19.0547 21.6155 18.0766 20.7559C19.0547 19.8962 19.6732 18.6392 19.6732 17.2402ZM17.3229 24.2715C17.3229 25.5639 16.2687 26.6152 14.9726 26.6152H10.2721V21.9277H14.9726C16.2687 21.9277 17.3229 22.9791 17.3229 24.2715ZM10.2721 19.584V14.8965H14.9726C16.2687 14.8965 17.3229 15.9478 17.3229 17.2402C17.3229 18.5327 16.2687 19.584 14.9726 19.584H10.2721Z" fill="#070707" stroke="#070707" stroke-width="0.5"/>
<path d="M27.8991 17.2402C24.6592 17.2402 22.0234 19.8687 22.0234 23.0996C22.0234 26.3305 24.6592 28.959 27.8991 28.959C29.9901 28.959 31.9401 27.8369 32.9879 26.0302L30.9535 24.8565C30.3243 25.9414 29.1538 26.6152 27.8991 26.6152C26.3668 26.6152 25.0601 25.6356 24.5751 24.2715H33.7747V23.0996C33.7747 19.8687 31.1389 17.2402 27.8991 17.2402ZM24.5751 21.9277C25.0601 20.5636 26.3668 19.584 27.8991 19.584C29.4313 19.584 30.7381 20.5636 31.2231 21.9277H24.5751Z" fill="#070707" stroke="#070707" stroke-width="0.5"/>
<path d="M23.1985 12.5527H32.5995V14.8965H23.1985V12.5527Z" fill="#070707" stroke="#070707" stroke-width="0.5"/>
</g>
<defs>
<clipPath id="clip0_169_15">
<rect width="40.111" height="40" fill="white" transform="translate(0.792725 0.755859)"/>
</clipPath>
</defs>
</svg>
